<svg width="512" height="155.12" xmlns="http://www.w3.org/2000/svg"><path d="M57.43 95.635h15.511V59.153a36.482 36.482 0 0 0-31.223-36.095l-.793-.1-.847-.1a55.513 55.513 0 0 1-23.09-7.252A24.31 24.31 0 0 1 9.023 8.94a11.185 11.185 0 0 0-4.573 8.232 16.278 16.278 0 0 0 7.439 15.051 36.475 36.475 0 0 0 45.54 56.8zM36.459 81.157A21.997 21.997 0 1 1 58.456 59.16a21.997 21.997 0 0 1-21.997 21.997m227.61 14.478h15.511V59.153a36.482 36.482 0 0 0-31.223-36.095l-.793-.1-.847-.1a55.533 55.533 0 0 1-23.09-7.252 24.264 24.264 0 0 1-7.965-6.666 11.185 11.185 0 0 0-4.573 8.232 16.285 16.285 0 0 0 7.439 15.051 36.475 36.475 0 0 0 45.54 56.8zm-20.964-14.478a21.997 21.997 0 1 1 21.997-21.997 21.997 21.997 0 0 1-21.997 21.997m-25.25 37.075c-12.458 21.691-40.995 36.889-74.124 36.889s-61.666-15.198-74.124-36.889h17.518a80.403 80.403 0 0 0 113.21 0zm257.66-95.555a36.482 36.482 0 1 0 36.482 36.482 36.482 36.482 0 0 0-36.482-36.482m0 58.486a21.997 21.997 0 1 1 21.997-21.997 21.997 21.997 0 0 1-21.997 21.997M406.577 49.22v46.414h-15.818V49.22a10.755 10.755 0 1 0-21.511 0v46.414h-15.785V49.22a10.755 10.755 0 1 0-21.511 0v46.414h-15.791V49.22a26.377 26.377 0 0 1 2.406-10.999 16.918 16.918 0 0 1-5.839-14.332 11.925 11.925 0 0 1 4.873-8.766 62.999 62.999 0 0 0 8.499 7.113 25.45 25.45 0 0 0 5.332 2.973 26.443 26.443 0 0 1 29.923 5.126 26.537 26.537 0 0 1 45.194 18.878M125.31 95.627H109.8V-.001h15.51v27.157a31.796 31.796 0 0 1 48.074 27.33v41.168h-15.51V54.486a16.281 16.281 0 0 0-32.564 0z" fill="#231815"/></svg>