<svg width="121.615" height="21.917" xmlns="http://www.w3.org/2000/svg"><path d="M0 21.108V.808A.426.426 0 0 1 .463.345h4.482a.425.425 0 0 1 .462.463v15.643h9.311a.41.41 0 0 1 .433.434v4.221a.418.418 0 0 1-.433.463H.463A.426.426 0 0 1 0 21.106m19.623.002V.808a.426.426 0 0 1 .462-.463h4.482a.426.426 0 0 1 .463.463v20.3a.426.426 0 0 1-.463.463h-4.482a.426.426 0 0 1-.462-.463m9.809 0V.808a.426.426 0 0 1 .462-.463h4.684a.619.619 0 0 1 .549.318l7.576 12.607V.81a.426.426 0 0 1 .462-.463h4.25a.426.426 0 0 1 .463.463v20.3a.426.426 0 0 1-.463.463H42.76a.589.589 0 0 1-.55-.318l-7.6-12.664v12.52a.426.426 0 0 1-.462.463h-4.251a.426.426 0 0 1-.462-.463m23.577-.003V.808a.426.426 0 0 1 .463-.463h13.966a.44.44 0 0 1 .463.463v3.73a.44.44 0 0 1-.463.462h-9.079v3.47h8.01a.426.426 0 0 1 .462.463v3.585a.426.426 0 0 1-.462.462h-8.01v3.933h9.426a.44.44 0 0 1 .462.462v3.73a.44.44 0 0 1-.462.463H53.475a.426.426 0 0 1-.463-.463m19.458.003V.808a.426.426 0 0 1 .463-.463h4.684a.529.529 0 0 1 .52.318l6.39 10.641L90.744.663a.575.575 0 0 1 .521-.318h4.6a.426.426 0 0 1 .463.463v20.3a.426.426 0 0 1-.463.463h-4.25a.426.426 0 0 1-.463-.463V9.05l-4.89 8.151a.53.53 0 0 1-.52.318h-2.689a.529.529 0 0 1-.52-.318l-4.887-7.952v11.855a.426.426 0 0 1-.463.463h-4.25a.426.426 0 0 1-.463-.463m33.25-8.012a5.378 5.378 0 0 1 7.07-7.071.458.458 0 0 0 .505-.1l3.424-3.424a.464.464 0 0 0-.074-.716 10.957 10.957 0 0 0-15.165 15.166.464.464 0 0 0 .716.073l3.424-3.424a.457.457 0 0 0 .1-.505" fill="#14eb0a"/><path d="M115.594 8.825a5.378 5.378 0 0 1-7.071 7.071.458.458 0 0 0-.505.1l-3.424 3.424a.464.464 0 0 0 .073.716A10.957 10.957 0 0 0 119.832 4.97a.464.464 0 0 0-.716-.073l-3.424 3.424a.457.457 0 0 0-.1.505" fill="#b4b9be"/></svg>