<svg width="512" height="253.69" xmlns="http://www.w3.org/2000/svg"><path d="m134.3 9.8 2.736 6.615-2.985 1.244-2.636-6.715zm-6.218 1.342 2.935 6.517-2.985 1.243-2.835-6.466zm16.962.05c-1.243 8.158-6.118 14.873-13.43 17.858l-2.189-2.985c7.163-2.586 11.093-8.157 12.137-15.569zM117.885.448c-2.189 0-3.88 1.741-3.88 3.88s1.741 3.88 3.88 3.88c2.189 0 3.88-1.79 3.88-3.88v.05c0-2.189-1.74-3.93-3.88-3.93m0 5.92c-1.044 0-1.89-.896-1.89-1.89v-.1c0-1.045.895-1.89 1.89-1.89 1.094 0 1.94.895 1.94 1.89 0 1.094-.895 1.99-1.94 1.99m376.85 19.3c0 2.337-1.89 4.227-4.278 4.227a4.277 4.277 0 1 1 0-8.555c2.388 0 4.278 1.94 4.278 4.327zm-6.715 0c0 1.293 1.094 2.387 2.388 2.387a2.441 2.441 0 0 0 2.437-2.437c0-1.294-1.094-2.388-2.437-2.388-1.294 0-2.388 1.094-2.388 2.437zm-33.676-9.253c0-5.223.746-10.794 1.741-15.27l3.83.696c-1.243 4.228-1.89 9.5-1.89 14.525 0 4.427.448 8.257 1.741 11.44l-3.78 1.095c-1.144-3.383-1.642-7.66-1.642-12.485zm24.573 10.346a68.49 68.49 0 0 1-6.268.299c-5.77 0-10.147-1.095-10.147-4.378 0-1.293.398-2.885 1.393-5.024l3.283.597c-.746 1.542-1.094 2.487-1.094 3.283 0 1.642 2.189 2.14 6.466 2.14 1.99 0 4.229-.25 6.367-.598v3.681zm-5.273-21.24c1.542 0 3.234.05 4.577.1l-.1 3.432c-1.592-.1-3.581-.199-5.521-.199-3.184 0-6.666.199-9.501.497l-.249-3.382c3.134-.299 7.163-.448 10.794-.448zm-56.458 22.086-2.735-1.094c.945-2.238 1.641-5.074 1.84-7.959l2.786.498a29.597 29.597 0 0 1-1.89 8.555m2.785 2.338V16.863c-1.84.15-3.581.299-4.924.448l-.548-3.084c.647-.05 1.443-.1 2.289-.1a84.474 84.474 0 0 0 2.487-3.382c-1.144-1.393-2.786-3.034-4.427-4.377l1.641-2.239c.348.249.696.547 1.045.846 1.044-1.741 1.99-3.532 2.537-4.875l2.934 1.244c-.845 1.542-2.089 3.63-3.432 5.521.547.497.945.995 1.393 1.492a57.515 57.515 0 0 0 3.183-5.372l2.985 1.343c-1.641 2.786-4.03 6.317-6.665 9.65 1.243-.05 2.536-.1 3.68-.149-.397-.796-.895-1.542-1.392-2.338l2.537-1.144c.646.895 1.193 1.89 1.641 2.786v-2.836h5.422V6.716h-3.93V3.83h3.93V.1h3.383v3.73h3.68v1.89c.697-1.193 1.244-2.437 1.742-3.73l3.183.896c-1.094 2.636-2.437 5.123-4.129 7.411h4.527v2.985h-7.014a37.545 37.545 0 0 1-1.99 1.99h7.164v14.673h-3.383v-1.094h-6.268v1.094h-3.332V19.748a34.49 34.49 0 0 1-1.393.896l-1.492-1.492c.646 2.039 1.094 4.228 1.243 5.87l-2.885.696c-.1-1.89-.647-4.527-1.343-6.716l2.238-.597-.199-.149c2.736-1.442 5.074-3.084 7.163-4.974h-6.317c.547 1.094.995 2.189 1.244 3.084l-2.637 1.144c-.1-.398-.248-.746-.348-1.194-.647.1-1.293.1-1.99.2v13.43h-3.233zm13.232-9.252h6.168v-2.487h-6.168zm0 5.223h6.168V23.38h-6.168zm5.521-19.2h-3.084v3.58h.548c.945-1.143 1.84-2.288 2.536-3.58m-63.272 6.068h29.895v3.73h-29.895zm-13.629 7.959 6.169 6.715-3.035 2.487-6.068-6.765zm-30.84-11.59c1.045-1.244 2.239-1.94 3.283-1.94 1.244 0 2.886.795 4.378 2.487 3.532 4.029 5.77 6.665 13.779 13.779l-2.835 3.034c-4.527-4.079-9.501-9.252-12.684-12.784-.995-1.293-1.89-1.79-2.587-1.79-.597 0-1.194.497-1.99 1.392a791.417 791.417 0 0 0-7.61 8.904l-2.885-2.636c3.332-3.681 7.262-8.407 9.152-10.446m-41.386 19.3v1.542h-3.482V6.467h10.943V.05h3.582v6.417h11.44v23.478h-3.58v-1.493zM297.11 9.75h-7.51v5.87h7.51zm0 9.102h-7.51v6.318h7.51zm11.491-9.102h-7.909v5.87h7.91zm0 9.102h-7.909v6.318h7.91zm-53.225 9.65v1.443h-3.581V4.427h8.108L261.345 0l4.228.746-1.74 3.73h10.793v25.519h-3.68v-1.493zm15.57-20.841h-15.57v3.63h15.57zm0 6.814h-15.57v3.78h15.57zm0 6.914h-15.57v3.88h15.57zm-56.906-3.83c0-7.312 5.87-14.376 14.276-14.376 9.302 0 12.883 5.472 12.883 11.938 0 6.168-2.785 11.54-12.038 13.58l-1.74-3.531c7.908-1.343 9.997-5.174 9.997-9.949 0-4.825-2.536-8.108-8.008-8.406-.498 12.087-4.228 20.295-9.302 20.295-3.582-.05-6.069-4.627-6.069-9.551zm3.532-.05c0 3.084 1.244 5.522 2.736 5.522 2.188 0 5.173-5.67 5.471-15.967-5.173 1.094-8.207 5.571-8.207 10.446m-27.906.199h-3.83V2.388h3.83zM204.688 1.89v11.938c0 7.014-3.383 11.988-10.794 15.122l-2.537-3.184c7.063-2.537 9.451-6.566 9.451-12.038V1.89zm-43.276 9.998c1.194.696 5.273 3.383 6.715 4.427 1.741-2.586 2.835-5.472 3.383-8.307h-9.252c-2.388 3.681-5.373 7.312-8.307 9.6l-2.886-2.387c4.477-3.233 8.805-9.55 10.645-14.276l3.582 1.144c-.298.846-.746 1.691-1.144 2.537h9.302l2.586 1.492c-2.387 10.545-8.307 19.4-17.659 23.031l-2.537-3.084c4.03-1.393 7.362-3.83 9.949-6.815-1.642-1.193-5.323-3.68-6.815-4.576zm-46.808-1.442c-4.676 1.99-10.695 3.979-16.763 5.372v4.228c0 3.283 1.144 4.327 4.278 4.576.895.1 2.487.1 4.228.1 2.885 0 6.367-.15 8.854-.548v3.83c-2.686.25-5.87.3-8.804.3-1.94 0-3.731 0-4.975-.1-4.725-.299-7.51-2.736-7.51-7.014V2.14h3.88v10.147c5.421-1.244 11.191-3.333 14.872-5.173zM57.4 16.416c0-5.223.746-10.794 1.741-15.271l3.83.696c-1.243 4.228-1.89 9.5-1.89 14.525 0 4.427.448 8.257 1.741 11.441l-3.78 1.094c-1.194-3.382-1.642-7.66-1.642-12.485zm24.573 10.346c-2.04.199-4.377.348-6.317.348-5.77 0-10.147-1.094-10.147-4.377 0-1.294.398-2.886 1.392-5.024l3.283.596c-.746 1.542-1.094 2.488-1.094 3.283 0 1.642 2.189 2.14 6.467 2.14 1.99 0 4.228-.25 6.367-.598zM76.7 5.522c1.542 0 3.234.05 4.577.1l-.1 3.431c-1.592-.1-3.581-.199-5.521-.199-3.184 0-6.666.2-9.501.498l-.249-3.383c3.084-.298 7.113-.447 10.794-.447zM28.002 28.85v1.094h-3.531v-7.61c-1.393 1.293-2.886 2.486-4.726 3.531l-2.736-2.388c4.179-2.337 7.113-5.123 9.153-8.555h-5.173v-3.035h6.665c.348-.746.647-1.591.895-2.487H17.407V6.467h11.888c.15-.747.299-1.542.398-2.388h-8.705V1.094h22.683v5.373h3.582V9.45h-3.631v5.472h-13.58c-.448.796-.896 1.641-1.393 2.437h16.166v12.585h-3.582V28.85zm13.182-8.307H28.002v5.123h13.182zM32.081 9.402a29.255 29.255 0 0 1-.796 2.487h8.805V9.402zm8.009-2.935V4.029h-6.865c-.149.846-.248 1.642-.397 2.438zm261.1 54.269 23.13 43.574 23.23-43.574h43.674l-66.904 125.75-66.804-125.75zm-241.6 0c-32.88 0-59.592 26.712-59.592 59.64v133.31H40.14v-76.951c6.118 2.089 12.635 3.283 19.499 3.283 32.93 0 59.592-26.712 59.592-59.592.05-32.98-26.662-59.691-59.641-59.691m0 75.21c-8.606 0-15.569-7.013-15.569-15.568s6.964-15.57 15.569-15.57 15.569 7.015 15.569 15.57c.05 8.605-6.914 15.569-15.569 15.569m392.82-75.211c-32.93 0-59.592 26.712-59.592 59.592 0 32.93 26.712 59.592 59.592 59.592 32.93 0 59.592-26.712 59.592-59.592.05-32.88-26.662-59.592-59.592-59.592m0 75.21c-8.606 0-15.569-7.013-15.569-15.568s6.964-15.57 15.569-15.57 15.569 7.015 15.569 15.57c0 8.605-6.964 15.569-15.569 15.569M196.29 60.735c-32.93 0-59.592 26.712-59.592 59.592 0 32.93 26.712 59.592 59.592 59.592 32.93 0 59.592-26.712 59.592-59.592.05-32.88-26.662-59.592-59.592-59.592m0 75.21c-8.606 0-15.569-7.013-15.569-15.568s7.014-15.57 15.569-15.57c8.605 0 15.569 7.015 15.569 15.57.05 8.605-6.964 15.569-15.569 15.569" fill="#767778"/></svg>