<svg xmlns="http://www.w3.org/2000/svg" viewBox="0 0 354.24 69.46"><defs><style>.cls-1{fill:#f03;}</style></defs><title>logo</title><g id="レイヤー_2" data-name="レイヤー 2"><g id="レイヤー_1-2" data-name="レイヤー 1"><path class="cls-1" d="M140.82,32.36h10v5c2.29-2.95,5.31-5.64,10.36-5.64,4.58,0,8.06,2,9.89,5.57a14.48,14.48,0,0,1,11.53-5.57c7.4,0,11.86,4.46,11.86,12.91V67.49h-10V47.89c0-4.72-2.1-7.14-5.83-7.14s-6,2.42-6,7.14V67.49h-10V47.89c0-4.72-2.1-7.14-5.83-7.14s-6,2.42-6,7.14V67.49h-10Z"/><path class="cls-1" d="M200.31,50.12V50c0-10.09,8.13-18.28,19.07-18.28s18.94,8.06,18.94,18.15V50c0,10.09-8.12,18.29-19.07,18.29s-18.94-8.06-18.94-18.15m28.18,0V50c0-5.17-3.73-9.7-9.24-9.7-5.7,0-9.11,4.39-9.11,9.57V50c0,5.18,3.74,9.7,9.24,9.7,5.7,0,9.11-4.39,9.11-9.57"/><path class="cls-1" d="M254.16,62.9v4.59h-10V19.65h10V37.41a12.91,12.91,0,0,1,10.95-5.7c8.19,0,16,6.42,16,18.15V50c0,11.74-7.67,18.15-16,18.15a13.48,13.48,0,0,1-10.95-5.24m17-12.91v-.13c0-5.83-3.93-9.7-8.58-9.7S254,44,254,49.86V50c0,5.83,3.87,9.7,8.52,9.7s8.58-3.8,8.58-9.7"/><path class="cls-1" d="M286.71,19.65h10.48V28.5H286.71ZM287,32.37h10V67.49H287Z"/><rect class="cls-1" x="303.93" y="19.65" width="9.96" height="47.83"/><path class="cls-1" d="M319.78,50.12V50c0-10,7.14-18.29,17.37-18.29,11.73,0,17.1,9.11,17.1,19.07,0,.79-.07,1.7-.13,2.62H329.67c1,4.52,4.13,6.88,8.58,6.88,3.34,0,5.77-1,8.52-3.6l5.7,5c-3.27,4.06-8,6.55-14.35,6.55-10.55,0-18.35-7.4-18.35-18.15m24.77-2.94c-.59-4.46-3.21-7.47-7.4-7.47s-6.81,2.95-7.6,7.47Z"/><path class="cls-1" d="M104.72,13c-1.85.18-9.53,1.91-12.11,2.46-2.77.74-29.3,21.5-31,26.29-.37,1.66,0,19.51,0,19.51l15,1-.53,5C74,67.08,60,67.1,51.32,67.1c-4.42,0-17.93.49-22.48.36l.57-4.72a34,34,0,0,0,9.85-.92c2.66-.71,4.56-1.76,4.56-4.43V41.91c-.92-2.76-23-30.54-28.7-35C13.46,6.38,2.58,5.2,0,4.65L.54,0H50.89l-.72,4.28C48,4.84,37.3,5,34.53,5.77c7.19,10.7,18.56,24.46,22.25,29.82,2-3,21.33-16.46,21.88-20.7C75.9,14.34,66.73,13,65.26,13l-.88-4.73h43.48Z"/><path class="cls-1" d="M97.37,67.75l-5.75-1.51,4-9.28,5.58,2,5.36,1.42-4,9.07Zm11.51-15.32L100.6,49.9,113.92,6.39l18.79,5.75-3.69,6Z"/></g></g></svg>